/* XPM */
static char *a56183ac417a4aaeec5fba2ac2f331a4[] = {
/* columns rows colors chars-per-pixel */
"16 16 95 2 ",
"   c #1C6FCE",
".  c #286ECD",
"X  c #296ECD",
"o  c #2477CF",
"O  c #2F75CF",
"+  c #2778CF",
"@  c #2978CE",
"#  c #327ACA",
"$  c #2172D1",
"%  c #2277D3",
"&  c #2777D2",
"*  c #2B74D2",
"=  c #2D74D0",
"-  c #2C77D4",
";  c #2D79D1",
":  c #2C7AD1",
">  c #2C79D2",
",  c #2E7BD2",
"<  c #2F7AD3",
"1  c #2E7BD3",
"2  c #2E7CD1",
"3  c #2D7CD3",
"4  c #297BD5",
"5  c #2B7BD5",
"6  c #2F7AD4",
"7  c #2D7BD6",
"8  c #297CD4",
"9  c #2C7CD7",
"0  c #2E7FD6",
"q  c #297AD8",
"w  c #2C7BD8",
"e  c #2E79DA",
"r  c #307ED3",
"t  c #317BD9",
"y  c #327BD9",
"u  c #307DD8",
"i  c #367DDB",
"p  c #337EDF",
"a  c #3479E0",
"s  c #1F85D9",
"d  c #2984D7",
"f  c #2787DA",
"g  c #2F81DB",
"h  c #3182D6",
"j  c #3181D8",
"k  c #3282DF",
"l  c #3186DE",
"z  c #428DDC",
"x  c #689EDA",
"c  c #6DA1D6",
"v  c #6EA1D6",
"b  c #6FA2D6",
"n  c #6DA2DB",
"m  c #70A1D9",
"M  c #73A2D8",
"N  c #74A3D9",
"B  c #77A1DA",
"V  c #74A2DA",
"C  c #76A4D9",
"Z  c #74A4DB",
"A  c #70A2DD",
"S  c #72A6DE",
"D  c #78A2DB",
"F  c #79A6DB",
"G  c #7CA5DA",
"H  c #77A8DC",
"J  c #76A9DF",
"K  c #7EAADA",
"L  c #78A8DC",
"P  c #7AA9DE",
"I  c #7DA8DC",
"U  c #7FAADE",
"Y  c #7FACDD",
"T  c #6DA2E1",
"R  c #6DA1E3",
"E  c #72A4E3",
"W  c #77A6E1",
"Q  c #70A8E5",
"!  c #73ACE7",
"~  c #78A8E0",
"^  c #7AA8E0",
"/  c #80A3D7",
"(  c #82ADD3",
")  c #82ADD6",
"_  c #82A7DE",
"`  c #81ADDA",
"'  c #81ABDF",
"]  c #81ADDE",
"[  c #83AFDF",
"{  c #84AFDE",
"}  c #89B0DB",
"|  c #8BB1DD",
" . c #82B1E2",
".. c #89B3E4",
"X. c None",
/* pixels */
"X.X.X.X.X.X.X.X.X.X.X.X.X.X.X.X.",
"X.X.X.X.X.X.X.X.X.X.X.X.X.X.X.X.",
"X.X.X.L N N H X.X.h : 1 7 X.X.X.",
"X.X.' K E H | X.X.1 t t r q X.X.",
"X.X.) T X.X.b ~ i + X.X.: < X.X.",
"X.X.( X.X.X.b W p & X.X.X.7 X.X.",
"X.X. .` n x b E a . O : 9 h X.X.",
"X.X.X.Z { [ ..X.X.s f d o X.X.X.",
"X.X.X.X.- X.X.X.X.X.X.L X.X.X.X.",
"X.X.k @ $ %   X.X./ D C | T X.X.",
"X.X.* j X.X.= g Q C X.X.G A X.X.",
"X.X.# X.X.X.. l ! N X.X.X.N X.X.",
"X.X.w : X.X.5 X.X.[ X.X.U ~ X.X.",
"X.X.e r 8 9 t X.X.' ^ _ G z X.X.",
"X.X.X.X.X.X.X.X.X.X.X.X.X.X.X.X.",
"X.X.X.X.X.X.X.X.X.X.X.X.X.X.X.X."
};
