/* XPM */
static char *_055dc23691b4f7dfd38bed83904ceb8[] = {
/* columns rows colors chars-per-pixel */
"64 64 112 2 ",
"   c #1F62BE",
".  c #2A67AF",
"X  c #276DB1",
"o  c #2179BC",
"O  c #156FDE",
"+  c #157DDA",
"@  c #2B6BC6",
"#  c #3466CE",
"$  c #346BCF",
"%  c #2C73C1",
"&  c #2372C8",
"*  c #2A74CC",
"=  c #257ACC",
"-  c #2D7ACD",
";  c #3077C2",
":  c #3078C2",
">  c #3277CD",
",  c #3B73CB",
"<  c #357CCD",
"1  c #266ED3",
"2  c #296BD5",
"3  c #2567D9",
"4  c #246ADD",
"5  c #3863D0",
"6  c #346CD1",
"7  c #2574D4",
"8  c #2E75D3",
"9  c #2479D2",
"0  c #2E7CD4",
"q  c #2673D9",
"w  c #2E75DA",
"e  c #257DDB",
"r  c #2C7DDA",
"t  c #3275D3",
"y  c #3E71D1",
"u  c #317CD4",
"i  c #3878D4",
"p  c #3477DC",
"a  c #3977DD",
"s  c #317EDA",
"d  c #1D6BE0",
"f  c #1D79EA",
"g  c #2175E4",
"h  c #2D7BE1",
"j  c #2372E8",
"k  c #3675E0",
"l  c #347CE1",
"z  c #2781CD",
"x  c #2981CF",
"c  c #2D89CD",
"v  c #3580CE",
"b  c #2B91C8",
"n  c #2380D5",
"m  c #2D82D4",
"M  c #2C8CD3",
"N  c #2485DF",
"B  c #2E81DB",
"V  c #2E8CD8",
"C  c #3381D4",
"Z  c #3289D4",
"A  c #3283DC",
"S  c #318DDC",
"D  c #249CD4",
"F  c #1D8BE0",
"G  c #2D82E2",
"H  c #2688E0",
"J  c #298BE0",
"K  c #2281E9",
"L  c #2B84EA",
"P  c #3384E2",
"I  c #338CE3",
"U  c #3284E9",
"Y  c #2491E2",
"T  c #2291EC",
"R  c #2898E9",
"E  c #339AF3",
"W  c #5F9AD6",
"Q  c #639AD7",
"!  c #669FDB",
"~  c #6B9FDA",
"^  c #7E98D7",
"/  c #759DDA",
"(  c #7A9CD9",
")  c #7EA5CC",
"_  c #6BA1D7",
"`  c #65A0DA",
"'  c #6EA2DA",
"]  c #6AA9DE",
"[  c #74A2D6",
"{  c #72A3DB",
"}  c #7AA7DC",
"|  c #75A9DC",
" . c #7AABDE",
".. c #6F96E1",
"X. c #6B9FE0",
"o. c #6EA6E4",
"O. c #6EA9E6",
"+. c #66A8EE",
"@. c #73A5E0",
"#. c #7CA4E1",
"$. c #74A9E3",
"%. c #7BAEE2",
"&. c #70ACEE",
"*. c #8397D7",
"=. c #8FA3D4",
"-. c #80A2DF",
";. c #80AADC",
":. c #84ADE8",
">. c #83B2E3",
",. c #90B0E1",
"<. c #A4C9DF",
"1. c None",
/* pixels */
"1.1.1.1.1.1.1.1.1.1.1.1.1.1.1.1.1.1.1.1.1.1.1.1.1.1.1.1.1.1.1.1.1.1.1.1.1.1.1.1.1.1.1.1.1.1.1.1.1.1.1.1.1.1.1.1.1.1.1.1.1.1.1.1.",
"1.1.1.1.1.1.1.1.1.1.1.1.1.1.1.1.1.1.1.1.1.1.1.1.1.1.1.1.1.1.1.1.1.1.1.1.1.1.1.1.1.1.1.1.1.1.1.1.1.1.1.1.1.1.1.1.1.1.1.1.1.1.1.1.",
"1.1.1.1.1.1.1.1.1.1.1.1.1.1.1.1.1.1.1.1.1.1.1.1.1.1.1.1.1.1.1.1.1.1.1.1.1.1.1.1.1.1.1.1.1.1.1.1.1.1.1.1.1.1.1.1.1.1.1.1.1.1.1.1.",
"1.1.1.1.1.1.1.1.1.1.1.1.1.1.1.1.1.1.1.1.1.1.1.1.1.1.1.1.1.1.1.1.1.1.1.1.1.1.1.1.1.1.1.1.1.1.1.1.1.1.1.1.1.1.1.1.1.1.1.1.1.1.1.1.",
"1.1.1.1.1.1.1.1.1.1.1.1.1.1.1.1.1.1.1.1.1.1.1.1.1.1.1.1.1.1.1.1.1.1.1.1.1.1.1.1.1.1.1.1.1.1.1.1.1.1.1.1.1.1.1.1.1.1.1.1.1.1.1.1.",
"1.1.1.1.1.1.1.1.1.1.1.1.1.1.1.1.1.1.1.1.1.1.1.1.1.1.1.1.1.1.1.1.1.1.1.1.1.1.1.1.1.1.1.1.1.1.1.1.1.1.1.1.1.1.1.1.1.1.1.1.1.1.1.1.",
"1.1.1.1.1.1.1.1.1.1.1.1.1.B < u e h e h r r e 0 C r 1.1.1.1.1.1.1.1.1.1.1.1.B A s r B h r B r G u < r 1.1.1.1.1.1.1.1.1.1.1.1.1.",
"1.1.1.1.1.1.1.1.1.1.1.s A q O n 1.1.1.1.1.1.1.1.+ 9 0 s 1.1.1.1.1.1.1.1.0 A C @ r 1.1.1.1.1.1.1.r G V s I 1.1.1.1.1.1.1.1.1.1.1.",
"1.1.1.1.1.1.1.1.1.A 0 7 1.1.1.1.1.1.1.1.1.1.1.1.1.1.1.9 u G 1.1.1.1.B s G 1.1.1.1.1.1.1.1.1.1.1.1.1.1.1.> Z u 1.1.1.1.1.1.1.1.1.",
"1.1.1.1.1.1.1.1.> B 1.1.1.1.1.1.{ { | [ { { { #.1.1.1.1.1.B u 1.1.u r 1.1.1.1.1.V > > 0 0 > > 0 A 1.1.1.1.1.B 6 1.1.1.1.1.1.1.1.",
"1.1.1.1.1.1.1.1.t 1.1.1.1.' | { ' @.{ { { { { { { @.| 1.1.1.w 1.1.s 1.1.1.0 r 0 u u 0 r 0 B r u u m 0 1.1.1.1.i 1.1.1.1.1.1.1.1.",
"1.1.1.1.1.1.1.h o 1.1.| @.{ ' { { { { { { { { { { ' / %.1.1.1.G 0 1.1.1.B r > 0 0 0 0 0 0 0 u 0 0 0 0 B > 1.1.1.7 1.1.1.1.1.1.1.",
"1.1.1.1.1.1., T 1.1.@.{ { { { { { { { { { { { { { { { { %.1.1.. 6 1.1.A 8 0 0 0 0 0 u 0 0 0 0 0 0 0 0 0 m > 1.1.R y 1.1.1.1.1.1.",
"1.1.1.1.1.1.0 1.1.1.! { { { ' { { [ [ [ [ [ [ { ' { { ' { ;.1.1.1.1.b w 0 0 0 0 0 0 x x z 0 z 0 u 0 0 0 0 v 1.1.1.u 1.1.1.1.1.1.",
"1.1.1.1.1.1.w 1.1.>._ { { { / ' o.o.O.o.o.o.O.@.{ { { { ' { 1.1.1.1.u 8 0 0 0 m m p k l p p l p 0 A 0 0 0 B r 1.1.G 1.1.1.1.1.1.",
"1.1.1.1.1.> F 1.1.' { { ' { @.1.1.1.1.1.1.1.1.1.1.{ { ' { { 1.1.1.1.0 0 0 0 0 1.1.1.1.1.1.1.1.1.1.6 m 0 0 0 A 1.1.: N 1.1.1.1.1.",
"1.1.1.1.1.8 F 1.1.{ { { ' { 1.1.1.1.1.1.1.1.1.1.1.o.{ { { { 1.1.1.1.m 0 u m q 1.1.1.1.1.1.1.1.1.1.1.0 A 0 0 u 1.1.* A 1.1.1.1.1.",
"1.1.1.1.1.B * 1.1.{ { { { @.1.1.1.1.1.1.1.1.1.1.1.Q | { { { 1.1.1.1.0 0 0 u u 1.1.1.1.1.1.1.1.1.1.1.0 0 0 0 0 1.1.G m 1.1.1.1.1.",
"1.1.1.1.1.r 9 1.1.{ { { ' { 1.1.1.1.1.1.1.1.1.1.1.Q | / { { 1.1.1.1.0 0 0 > u 1.1.1.1.1.1.1.1.1.1.1.0 0 0 0 0 1.1.r B 1.1.1.1.1.",
"1.1.1.1.1.r 9 1.1.{ { ' { { 1.1.1.1.1.1.1.1.1.1.1.Q | { { { 1.1.1.1.0 0 0 0 0 1.1.1.1.1.1.1.1.1.1.1.7 0 0 0 u 1.1.r u 1.1.1.1.1.",
"1.1.1.1.1.r 9 1.1.{ { { { @.1.1.1.1.1.1.1.1.1.1.1.Q | { ' | 1.1.1.1.0 0 0 0 u 1.1.1.1.1.1.1.1.1.1.1.0 0 0 0 u 1.1.B B 1.1.1.1.1.",
"1.1.1.1.1.r 9 1.1.{ { { { { 1.1.1.1.1.1.1.1.1.1.1.! | { { @.1.1.1.1.0 0 0 0 0 1.1.1.1.1.1.1.1.1.1.1.0 m 0 0 0 1.1.u u 1.1.1.1.1.",
"1.1.1.1.1.r 9 1.1.{ { { { { 1.1.1.1.1.1.1.1.1.1.1.Q | ' { ' 1.1.1.1.m 0 0 > r 1.1.1.1.1.1.1.1.1.1.1.0 0 0 0 0 1.1.r B 1.1.1.1.1.",
"1.1.1.1.1.r 9 1.1.{ { { { $.1.1.1.1.1.1.1.1.1.1.1.Q | { { @.1.1.1.1.0 0 0 0 u 1.1.1.1.1.1.1.1.1.1.1.r u 0 0 0 1.1.r i 1.1.1.1.1.",
"1.1.1.1.1.0 g 1.1.{ { { ~ $.1.1.1.1.1.1.1.1.1.1.1.W | { { { 1.1.1.1.m 0 0 - u 1.1.1.1.1.1.1.1.1.1.1.r 0 0 0 0 1.1.u A 1.1.1.1.1.",
"1.1.1.1.1.4 n 1.1.| ' { { { Q 1.1.1.1.1.1.1.1.1.1.' { { ' @.1.1.1.1.0 0 0 0 s 1.1.1.1.1.1.1.1.1.1., - r 0 0 B 1.1.6 Y 1.1.1.1.1.",
"1.1.1.1.1.1.m 1.1...{ { { ' { { / { { { { / { / { / { { { { 1.1.1.1.0 0 0 0 0 t u 8 t u u u t > 0 0 0 0 0 r i 1.1.A 1.1.1.1.1.1.",
"1.1.1.1.1.1.- d 1.1.{ ' { { { { { { { { { { { { { { { { { { 1.1.1.1.r 0 0 0 0 0 0 r 0 0 0 0 0 r 0 0 0 0 0 B 1.1.f - 1.1.1.1.1.1.",
"1.1.1.1.1.1.2 Z 1.1.1.{ { ' { { { { { { { { { { { { { { ' { 1.1.1.1.0 0 0 0 0 0 0 0 0 0 0 0 0 0 0 0 0 0 0 1.1.1.V 2 1.1.1.1.1.1.",
"1.1.1.1.1.1.1.S 0 1.1.1.~ | { { { { ' ' ' ' ' { / ' ' { { { 1.1.1.1.0 - 0 > 0 0 0 0 t 0 > 0 8 0 0 0 8 G 1.1.1.i B 1.1.1.1.1.1.1.",
"1.1.1.1.1.1.1.1.q & 1.1.1.>.' @.~ ~ ~ ~ ~ ~ ~ ~ ' ~ ~ ~ ! +.1.1.1.1.k t u t t t t u t t t u t u r 0 > 1.1.1.0 r 1.1.1.1.1.1.1.1.",
"1.1.1.1.1.1.1.1.1.m 0 1.1.1.1.1.1.1.1.1.1.1.1.1.1.1.1.1.1.1.1.1.1.1.1.1.1.1.1.1.1.1.1.1.1.1.1.1.1.1.1.1.1.u m 1.1.1.1.1.1.1.1.1.",
"1.1.1.1.1.1.1.1.1.1.r s 1.1.1.1.1.1.1.1.1.1.1.1.1.1.1.1.1.1.1.1.1.1.1.1.1.1.1.1.1.1.1.1.1.1.1.1.1.1.1.1.r B 1.1.1.1.1.1.1.1.1.1.",
"1.1.1.1.1.1.1.1.1.> s H 1.1.1.1.1.1.1.1.1.1.1.1.1.1.1.1.1.1.1.1.1.1.1.1.1.1.1.1.1.1.1.1.1.1.1.1.1.1.1.1.K s x 1.1.1.1.1.1.1.1.1.",
"1.1.1.1.1.1.1.1.r 7 1.1.1.1.h B r u 0 r 0 r 0 r u r r r 0 5 1.1.1.1.&.{ @.{ { @.{ @.o.' { @.{ o.@.%.1.1.1.1.m B 1.1.1.1.1.1.1.1.",
"1.1.1.1.1.1.1.I w 1.1.1.u u 0 0 u 0 u 0 0 > 0 0 0 > 0 > 0 6 1.1.1.1.o.~ { ~ { ' ' ' ' ' { { ~ ' { { ' %.1.1.1.> U 1.1.1.1.1.1.1.",
"1.1.1.1.1.1.1.c 1.1.1.m 0 0 0 0 0 0 0 0 0 0 0 0 0 0 0 0 0 0 1.1.1.1.' [ { { { { { { { { ' { { { { ' { ~ } 1.1.1.M 1.1.1.1.1.1.1.",
"1.1.1.1.1.1.% j 1.1.0 0 0 0 0 0 0 0 0 0 0 0 0 0 0 0 0 0 0 t 1.1.1.1.{ { { { ' { { { { { { { ' { { { ' { { } 1.1.g : 1.1.1.1.1.1.",
"1.1.1.1.1.1.m 1.1.1.7 u 0 0 0 u 6 $ 6 6 6 6 $ $ t 0 0 0 0 0 1.1.1.1.{ { { { { / *.^ *.^ ^ ^ *.( ' { { { { ' 1.1.1.Z 1.1.1.1.1.1.",
"1.1.1.1.1.1.m 1.1.0 0 0 0 0 > r 1.1.1.1.1.1.1.1.1.u 0 0 0 u 1.1.1.1.{ ' { { / 1.1.1.1.1.1.1.1.1.#.! { { { [ $.1.1.w 1.1.1.1.1.1.",
"1.1.1.1.1.q Z 1.1.0 u 0 0 r 1.1.1.1.1.1.1.1.1.1.1.# 0 0 0 0 1.1.1.1.{ { { / / 1.1.1.1.1.1.1.1.1.1.1.{ { { { } 1.1.t J 1.1.1.1.1.",
"1.1.1.1.1.m C 1.1.m 0 0 0 r 1.1.1.1.1.1.1.1.1.1.1.$ m 0 0 t 1.1.1.1.{ { { ' { 1.1.1.1.1.1.1.1.1.1.1.@.~ { { { 1.1.n u 1.1.1.1.1.",
"1.1.1.1.1.r C 1.1.0 0 0 - B 1.1.1.1.1.1.1.1.1.1.1.t m 0 0 0 1.1.1.1.{ ' { ' { 1.1.1.1.1.1.1.1.1.1.1.} { { { | 1.1.e u 1.1.1.1.1.",
"1.1.1.1.1.s C 1.1.0 0 0 0 0 1.1.1.1.1.1.1.1.1.1.1.t m 0 0 0 1.1.1.1.{ { { ' @.1.1.1.1.1.1.1.1.1.1.1.{ { { ' | 1.1.r A 1.1.1.1.1.",
"1.1.1.1.1.r C 1.1.0 0 0 0 u 1.1.1.1.1.1.1.1.1.1.1.t 0 0 0 0 1.1.1.1.{ { { _ { 1.1.1.1.1.1.1.1.1.1.1.| { { { { 1.1.r u 1.1.1.1.1.",
"1.1.1.1.1.r C 1.1.0 0 0 0 r 1.1.1.1.1.1.1.1.1.1.1.t 0 0 0 u 1.1.1.1.' { { ' { 1.1.1.1.1.1.1.1.1.1.1.| ~ { { | 1.1.0 B 1.1.1.1.1.",
"1.1.1.1.1.r C 1.1.0 0 0 0 0 1.1.1.1.1.1.1.1.1.1.1.t m 0 0 8 1.1.1.1.{ { { { { 1.1.1.1.1.1.1.1.1.1.1.{ { / ' | 1.1.r B 1.1.1.1.1.",
"1.1.1.1.1.r C 1.1.0 0 0 0 B 1.1.1.1.1.1.1.1.1.1.1.t 0 0 0 > 1.1.1.1.{ { { _ { 1.1.1.1.1.1.1.1.1.1.1.| / { { | 1.1.e u 1.1.1.1.1.",
"1.1.1.1.1.r C 1.1.m 0 0 0 u 1.1.1.1.1.1.1.1.1.1.1.t 0 0 0 0 1.1.1.1.{ { { { ' 1.1.1.1.1.1.1.1.1.1.1.{ { { { { 1.1.e u 1.1.1.1.1.",
"1.1.1.1.1.t m 1.1.u 0 0 0 B 1.1.1.1.1.1.1.1.1.1.1.r 0 0 0 0 1.1.1.1.' { { { @.1.1.1.1.1.1.1.1.1.1.1.{ { { { | 1.1.3 Z 1.1.1.1.1.",
"1.1.1.1.1.L u 1.1.0 0 0 0 m u 1.1.1.1.1.1.1.1.1.r m 0 0 0 t 1.1.1.1.' { { ' { { 1.1.1.1.1.1.1.1.1.-.{ { { { @.1.1.t e 1.1.1.1.1.",
"1.1.1.1.1.1.p 1.1.D t 0 0 0 0 u 0 0 0 0 0 0 r m 0 0 0 0 8 J 1.1.1.1.,.! { { { { $.{ ' | ' { { | { ' { { { ` <.1.1.B 1.1.1.1.1.1.",
"1.1.1.1.1.1.i I 1.1.0 0 0 0 0 0 0 0 0 0 0 0 0 0 0 0 0 0 > 1.1.X   1.1.` { ' ' { { ' { { { [ { ~ { { { { | ~ 1.1.E 8 1.1.1.1.1.1.",
"1.1.1.1.1.1.1.e 1.1.1.i 0 0 0 0 0 0 0 0 0 0 0 0 0 0 - 0 U 1.1.s > 1.1.=.@.' { { { { { { { { { { { { { { @.1.1.1.9 1.1.1.1.1.1.1.",
"1.1.1.1.1.1.1.J u 1.1.1.V u u 0 u u - 0 0 u u > - A B 1.1.1.a e e w 1.1.1.| @.[ { { { _ { { { { { { {  .1.1.1.- m 1.1.1.1.1.1.1.",
"1.1.1.1.1.1.1.1.i 0 1.1.1.1.0 u - 0 u u 0 0 - B h % 1.1.1.@ B 1.1.s q 1.1.1.) :.| [ | | { | | | }  .1.1.1.1.B 8 1.1.1.1.1.1.1.1.",
"1.1.1.1.1.1.1.1.1.h s 1.1.1.1.1.1.1.1.1.1.1.1.1.1.1.1.1.B B 1.1.1.1.B r 1.1.1.1.1.1.1.1.1.1.1.1.1.1.1.1.1.0 A 1.1.1.1.1.1.1.1.1.",
"1.1.1.1.1.1.1.1.1.1.I u 0 1.1.1.1.1.1.1.1.1.1.1.1.1.t t m 1.1.1.1.1.1.0 w 8 1.1.1.1.1.1.1.1.1.1.1.1.1.0 A = 1.1.1.1.1.1.1.1.1.1.",
"1.1.1.1.1.1.1.1.1.1.1.1.A r u u r A A r r r r A B s B 1.1.1.1.1.1.1.1.1.1.B 0 s r e r r r r 9 e 0 0 B A 1.1.1.1.1.1.1.1.1.1.1.1.",
"1.1.1.1.1.1.1.1.1.1.1.1.1.1.B 0 r A r B A B A r i 1.1.1.1.1.1.1.1.1.1.1.1.1.1.t r B B B B r B B r - 1.1.1.1.1.1.1.1.1.1.1.1.1.1.",
"1.1.1.1.1.1.1.1.1.1.1.1.1.1.1.1.1.1.1.1.1.1.1.1.1.1.1.1.1.1.1.1.1.1.1.1.1.1.1.1.1.1.1.1.1.1.1.1.1.1.1.1.1.1.1.1.1.1.1.1.1.1.1.1.",
"1.1.1.1.1.1.1.1.1.1.1.1.1.1.1.1.1.1.1.1.1.1.1.1.1.1.1.1.1.1.1.1.1.1.1.1.1.1.1.1.1.1.1.1.1.1.1.1.1.1.1.1.1.1.1.1.1.1.1.1.1.1.1.1.",
"1.1.1.1.1.1.1.1.1.1.1.1.1.1.1.1.1.1.1.1.1.1.1.1.1.1.1.1.1.1.1.1.1.1.1.1.1.1.1.1.1.1.1.1.1.1.1.1.1.1.1.1.1.1.1.1.1.1.1.1.1.1.1.1.",
"1.1.1.1.1.1.1.1.1.1.1.1.1.1.1.1.1.1.1.1.1.1.1.1.1.1.1.1.1.1.1.1.1.1.1.1.1.1.1.1.1.1.1.1.1.1.1.1.1.1.1.1.1.1.1.1.1.1.1.1.1.1.1.1."
};
