/* XPM */
static char *_ad788553826488eee9691aa567198ab[] = {
/* columns rows colors chars-per-pixel */
"32 32 70 1 ",
"  c #1469CE",
". c #1C6DCC",
"X c #0D65D1",
"o c #136CD1",
"O c #186ED9",
"+ c #1B72D1",
"@ c #1E79D7",
"# c #1572D9",
"$ c #1D73DB",
"% c #1D7AD9",
"& c #266DCE",
"* c #356ECE",
"= c #2471CE",
"- c #2876CB",
"; c #3277CC",
": c #347ACC",
"> c #206EDA",
", c #296ADE",
"< c #346ED0",
"1 c #2274D4",
"2 c #2A77D1",
"3 c #267AD4",
"4 c #2D7CD4",
"5 c #2376D8",
"6 c #247ADA",
"7 c #2D7CD9",
"8 c #3173D1",
"9 c #307CD4",
"0 c #317CD9",
"q c #207BE1",
"w c #297CE3",
"e c #307FE3",
"r c #0D96DC",
"t c #3880CE",
"y c #2D81D6",
"u c #208CD4",
"i c #2D80D9",
"p c #3882D7",
"a c #3181DA",
"s c #0C9CE2",
"d c #019BEB",
"f c #3585E2",
"g c #0AA2E6",
"h c #5E97D6",
"j c #5F98D6",
"k c #629AD8",
"l c #6C9EDA",
"z c #769ED8",
"x c #6EA0D7",
"c c #6EA3DA",
"v c #73A4DB",
"b c #7AA6DC",
"n c #77A9DB",
"m c #7BABDC",
"M c #7FB0DA",
"N c #819EDA",
"B c #8B9FDB",
"V c #82ABD6",
"C c #81A0DA",
"Z c #83ABDE",
"A c #8AABDB",
"S c #84B1D3",
"D c #8ABBDD",
"F c #95B6DE",
"G c #82A7E0",
"H c #83B5E7",
"J c #B0C8E3",
"K c #B4CDEC",
"L c #BCD3EE",
"P c None",
/* pixels */
"PPPPPPPPPPPPPPPPPPPPPPPPPPPPPPPP",
"PPPPPPPPPPPPPPPPPPPPPPPPPPPPPPPP",
"PPPPPPPPPPPPPPPPPPPPPPPPPPPPPPPP",
"PPPPPP69PaPai5PPPP097PiPiaPPPPPP",
"PPPP77PPPPPPPP=PP0PPPPPPPP94PPPP",
"PPP-3PMbnvbvbPP,qPP794949yP4pPPP",
"PPP5PZccvvvvccPPPP894444442PePPP",
"PP#PPvvlPPPPblZPP449PPPP94yPP7PP",
"PP6PZcvPPPPPPvvPP34PPPPPP979PiPP",
"PP6PPlvPPPPPPvnPP44PPPPPP494P9PP",
"PP5PPvvPPPPPPvbPP39PPPPPP44PPiPP",
"PP6PSlnPPPPPPcbPP34PPPPPPy94P9PP",
"PPOPPlnPPPPPPvnPP74PPPPPP44PPiPP",
"PPP@PZllvvvvvvbPP4449944920PyPPP",
"PPP1PPbvkhhhhhkPP<***<*<97PPwPPP",
"PPPP1PPDJLKKKKLPPdssssgr.PPtPPPP",
"PPPPP3PPPPPPPPPPPPPPPPPPPP.PPPPP",
"PPPPyPP>ooooo XPPBNNCNNNHPPyPPPP",
"PPPaPy448888941PPvcvvzzvclFP$PPP",
"PPPPP944yyyy494PPnvcccccvcmPPPPP",
"PP7PPy:PPPPPP94PPbzPPPPPPlbPP6PP",
"PPaP:74PPPPPP42PPbcPPPPPPvnlP3PP",
"PP7PP44PPPPPP94PPbcPPPPPPvvPP6PP",
"PPiP:44PPPPPP41PPnvPPPPPPvncP6PP",
"PP0PP49PPPPPPy2PPvbPPPPPPvnPP6PP",
"PPuPP949947a447PPHlvvvvvvcZPP&PP",
"PPP0P749444494PPPPmvvcccvnAP6PPP",
"PPPP4PP444374PPfqPPnZGZZbPP3PPPP",
"PPPPP7PPPPPPPP4PP+PPPPPPPP1PPPPP",
"PPPPPP90aaa9aPPPPPP65%%@17PPPPPP",
"PPPPPPPPPPPPPPPPPPPPPPPPPPPPPPPP",
"PPPPPPPPPPPPPPPPPPPPPPPPPPPPPPPP"
};
